<?xml version="1.0" encoding="utf-8"?>
<!-- Generator: Adobe Illustrator 16.0.0, SVG Export Plug-In . SVG Version: 6.00 Build 0)  -->
<!DOCTYPE svg PUBLIC "-//W3C//DTD SVG 1.1//EN" "http://www.w3.org/Graphics/SVG/1.1/DTD/svg11.dtd">
<svg version="1.1" id="Layer_1" xmlns="http://www.w3.org/2000/svg" xmlns:xlink="http://www.w3.org/1999/xlink" x="0px" y="0px"
	 width="768px" height="1024px" viewBox="0 0 32 32" enable-background="new 0 0 32 32" xml:space="preserve">
<g id="_x32__audio_simple_repeat_all">
	<g>
		<path fill="#3D3D3D" d="M26.951,21.912c0.355-1.139,0.563-2.344,0.563-3.596c0-6.74-5.481-12.224-12.222-12.224
			c-5.975,0-10.953,4.313-12.007,9.987h4.022c0.98-3.493,4.184-6.064,7.985-6.064c4.576,0,8.298,3.723,8.298,8.298
			c0,0.627-0.08,1.232-0.215,1.82l-3.668-1.82l2.555,7.591l7.59-2.558L26.951,21.912z"/>
		<path fill="#3D3D3D" d="M6.456,18.302c-0.058-0.134-0.103-0.2-0.135-0.2c-0.062,0-0.158,0.01-0.291,0.029
			C5.898,18.15,5.8,18.16,5.735,18.16c-0.069,0-0.17-0.01-0.304-0.027c-0.134-0.018-0.235-0.025-0.304-0.025
			c-0.051,0-0.098,0.067-0.141,0.205c-0.174,0.468-0.311,0.815-0.412,1.047c-0.568,1.396-0.908,2.24-1.02,2.533l-1.329,3.635
			c-0.051,0.127-0.076,0.207-0.076,0.244c0,0.051,0.036,0.076,0.108,0.076h1.221c0.08,0,0.192-0.273,0.339-0.82
			c0.147-0.545,0.285-0.823,0.415-0.834c0.083-0.008,0.423-0.012,1.02-0.012h0.857c0.564,0,0.913,0.004,1.047,0.012
			c0.163,0.007,0.323,0.283,0.48,0.832c0.158,0.548,0.287,0.822,0.388,0.822c0.068,0,0.171-0.007,0.309-0.018
			c0.137-0.012,0.24-0.016,0.309-0.016s0.169,0.004,0.301,0.016c0.132,0.011,0.232,0.018,0.301,0.018c0.087,0,0.13-0.021,0.13-0.065
			c0-0.025-0.544-1.429-1.633-4.209C6.971,19.595,6.542,18.504,6.456,18.302z M6.071,23.004H5.512c-0.34,0-0.517-0.001-0.531-0.005
			c-0.275-0.021-0.413-0.094-0.413-0.217c0-0.091,0.375-1.091,1.123-3c0.13,0.253,0.353,0.784,0.667,1.595
			c0.326,0.835,0.488,1.307,0.488,1.41C6.846,22.932,6.588,23.004,6.071,23.004z"/>
		<path fill="#3D3D3D" d="M14.988,24.566c-0.058,0-0.141,0.011-0.25,0.031c-0.134,0.022-0.217,0.035-0.25,0.038
			c-0.68,0.065-1.687,0.099-3.021,0.099c-0.065,0-0.098-0.401-0.098-1.204c0-0.188,0.001-0.474,0.005-0.856c0-0.384,0-0.669,0-0.857
			c0-0.387,0.015-0.965,0.043-1.734c0.029-0.771,0.043-1.348,0.043-1.73c0-0.068-0.043-0.103-0.13-0.103
			c-0.065,0-0.167,0.005-0.304,0.017c-0.137,0.01-0.239,0.016-0.304,0.016c-0.069,0-0.17-0.006-0.304-0.016
			c-0.134-0.012-0.233-0.017-0.298-0.017c-0.09,0-0.136,0.039-0.136,0.119c0,0.419,0.019,1.047,0.057,1.885
			c0.038,0.837,0.057,1.465,0.057,1.886c0,0.396-0.013,0.993-0.041,1.789c-0.027,0.795-0.041,1.391-0.041,1.784
			c0,0.091,0.045,0.136,0.135,0.136c0.253,0,0.631-0.006,1.134-0.017s0.88-0.017,1.134-0.017c0.268,0,0.669,0.016,1.204,0.047
			c0.535,0.029,0.937,0.046,1.204,0.046c0.102,0,0.165-0.054,0.19-0.157c0.054-0.214,0.082-0.573,0.082-1.079
			C15.102,24.602,15.064,24.566,14.988,24.566z"/>
		<path fill="#3D3D3D" d="M20.732,24.566c-0.06,0-0.142,0.011-0.25,0.031c-0.133,0.022-0.217,0.035-0.25,0.038
			c-0.681,0.065-1.687,0.099-3.021,0.099c-0.064,0-0.098-0.401-0.098-1.204c0-0.188,0.002-0.474,0.005-0.856
			c0-0.384,0-0.669,0-0.857c0-0.387,0.016-0.965,0.044-1.734c0.027-0.771,0.044-1.348,0.044-1.73c0-0.068-0.044-0.103-0.131-0.103
			c-0.063,0-0.167,0.005-0.304,0.017c-0.138,0.01-0.239,0.016-0.305,0.016c-0.069,0-0.17-0.006-0.304-0.016
			c-0.134-0.012-0.233-0.017-0.298-0.017c-0.09,0-0.136,0.039-0.136,0.119c0,0.419,0.019,1.047,0.057,1.885
			c0.038,0.837,0.057,1.465,0.057,1.886c0,0.396-0.013,0.993-0.041,1.789c-0.027,0.795-0.041,1.391-0.041,1.784
			c0,0.091,0.045,0.136,0.136,0.136c0.253,0,0.63-0.006,1.134-0.017c0.502-0.011,0.881-0.017,1.133-0.017
			c0.268,0,0.67,0.016,1.205,0.047c0.535,0.029,0.936,0.046,1.203,0.046c0.102,0,0.166-0.054,0.191-0.157
			c0.053-0.214,0.079-0.573,0.079-1.079C20.846,24.602,20.809,24.566,20.732,24.566z"/>
	</g>
</g>
</svg>
