<?xml version="1.0" encoding="utf-8"?>
<!-- Generator: Adobe Illustrator 16.0.0, SVG Export Plug-In . SVG Version: 6.00 Build 0)  -->
<!DOCTYPE svg PUBLIC "-//W3C//DTD SVG 1.1//EN" "http://www.w3.org/Graphics/SVG/1.1/DTD/svg11.dtd">
<svg version="1.1" id="Layer_1" xmlns="http://www.w3.org/2000/svg" xmlns:xlink="http://www.w3.org/1999/xlink" x="0px" y="0px"
	 width="768px" height="1024px" viewBox="0 0 768 1024" enable-background="new 0 0 768 1024" xml:space="preserve">
<g>
	<path fill="#3B3B3B" d="M334.982,284.128c2.905,0,5.821-1.026,8.158-3.113c5.049-4.508,5.487-12.255,0.98-17.305
		c-8.747-9.796-13.563-22.403-13.563-35.501c0-28.701,21.731-58.662,53.443-74.434c31.712,15.77,53.442,45.732,53.442,74.434
		c0,13.098-4.816,25.705-13.563,35.501c-4.508,5.047-4.07,12.796,0.979,17.303c5.046,4.507,12.794,4.071,17.303-0.979
		c12.762-14.293,19.789-32.697,19.789-51.825c0-39.601-30.036-80.389-73.045-99.185c-3.129-1.368-6.686-1.366-9.815,0
		c-43.008,18.796-73.045,59.582-73.045,99.183c0,19.128,7.028,37.533,19.79,51.826C328.258,282.747,331.612,284.129,334.982,284.128
		z"/>
	<path fill="#3B3B3B" d="M203.801,657.223h49.021c6.768,0,12.255-5.487,12.255-12.256s-5.487-12.255-12.255-12.255h-49.021
		c-6.769,0-12.255,5.486-12.255,12.255S197.033,657.223,203.801,657.223z"/>
	<path fill="#3B3B3B" d="M755.744,814.298h-96.132c6.193-9.033,9.827-19.953,9.827-31.709c0-26.79-18.839-49.263-43.964-54.872
		V510.211c0-31-25.22-56.22-56.218-56.22H428.937V342.564c0-15.767-12.829-28.596-28.596-28.596h-4.085v-36.766
		c0-6.768-5.487-12.255-12.256-12.255s-12.255,5.487-12.255,12.255v36.766h-4.086c-15.767,0-28.596,12.829-28.596,28.596v111.427
		H154.78c-31,0-56.219,25.22-56.219,56.218c0,26.214,18.037,48.291,42.35,54.484c-0.791,2.136-1.837,4.062-3.065,6.323
		c-3.41,6.274-7.657,14.086-7.657,28.55c0,14.465,4.245,22.273,7.657,28.55c2.818,5.186,4.68,8.612,4.68,16.846
		c0,8.234-1.863,11.659-4.68,16.846c-3.41,6.276-7.657,14.087-7.657,28.55c0,14.465,4.245,22.275,7.657,28.55
		c2.818,5.187,4.68,8.611,4.68,16.846c0,8.235-1.863,11.662-4.682,16.849c-3.41,6.276-7.655,14.087-7.655,28.551
		c0,14.465,4.245,22.277,7.655,28.554c0.891,1.638,1.683,3.1,2.355,4.594H12.255C5.487,814.3,0,819.786,0,826.555
		s5.487,12.255,12.255,12.255h7.097l7.067,24.735C31.619,881.743,50.518,896,69.447,896h629.106
		c18.93,0,37.828-14.257,43.028-32.455l7.067-24.736h7.097c6.768,0,12.255-5.487,12.255-12.256
		C768,819.785,762.513,814.298,755.744,814.298L755.744,814.298z M363.574,342.564c0-2.214,1.871-4.085,4.085-4.085h32.682
		c2.214,0,4.085,1.871,4.085,4.085v111.427h-40.852V342.564z M123.071,510.209c0-17.484,14.224-31.707,31.708-31.707h414.476
		c17.484,0,31.707,14.225,31.707,31.709v228.416c0,6.769,5.487,12.255,12.256,12.255c17.482,0,31.707,14.225,31.708,31.707
		c0,17.484-14.224,31.709-31.708,31.709h-40.034V554.173c0-6.769-5.487-12.255-12.255-12.255H154.78
		C137.295,541.918,123.071,527.693,123.071,510.209L123.071,510.209z M159.379,798.002c-2.818-5.187-4.681-8.613-4.681-16.851
		c0-8.235,1.863-11.662,4.681-16.849c3.411-6.276,7.656-14.087,7.656-28.552s-4.245-22.273-7.656-28.55
		c-2.818-5.187-4.681-8.611-4.681-16.846c0-8.233,1.863-11.658,4.68-16.845c3.41-6.276,7.657-14.086,7.657-28.551
		c0-14.464-4.245-22.273-7.657-28.55c-2.819-5.185-4.68-8.611-4.68-16.845c0-8.234,1.863-11.659,4.68-16.846
		c2.292-4.218,4.956-9.138,6.459-16.293h382.836v66.281h-246.83c-6.769,0-12.255,5.487-12.255,12.256
		c0,6.768,5.487,12.255,12.255,12.255h246.832v66.283H203.801c-6.769,0-12.255,5.487-12.255,12.256
		c0,6.768,5.487,12.255,12.255,12.255h344.875v66.285H165.839C164.336,807.141,161.672,802.219,159.379,798.002L159.379,798.002z
		 M718.013,856.811c-2.194,7.682-11.471,14.679-19.46,14.679H69.447c-7.99,0-17.265-6.997-19.46-14.679l-5.144-18.002h678.314
		L718.013,856.811z"/>
</g>
</svg>
