<?xml version="1.0" encoding="iso-8859-1"?>
<!-- Generator: Adobe Illustrator 19.0.0, SVG Export Plug-In . SVG Version: 6.00 Build 0)  -->
<svg version="1.1" id="Layer_1" xmlns="http://www.w3.org/2000/svg" xmlns:xlink="http://www.w3.org/1999/xlink" x="0px" y="0px"
	width="768px" height="1024px" viewBox="0 0 512.001 512.001" style="enable-background:new 0 0 512.001 512.001;" xml:space="preserve">
<g>
	<g>
		<path d="M456.186,166.823c-32.584,0-385.248,0-400.373,0c-9.213,0-16.682,7.469-16.682,16.682s7.469,16.682,16.682,16.682h17.448
			c5.957,65.785,46.77,121.659,103.782,148.946l-20.677,62.377c-26.651-0.245-49.165,20.665-50.45,47.651
			c-1.312,27.565,20.044,51.058,47.61,52.371c27.608,1.3,51.059-20.076,52.37-47.61c0.317-6.658-0.7-13.186-2.796-19.113
			l130.41,0.047l19.606,55.981c3.052,8.698,12.575,13.266,21.265,10.218c8.694-3.051,13.268-12.572,10.217-21.265l-49.398-140.77
			c56.885-27.33,97.589-83.142,103.538-148.833h17.448c9.213,0,16.682-7.469,16.682-16.682
			C472.87,174.293,465.399,166.823,456.186,166.823z M155.112,478.205c-9.21-0.438-16.309-8.245-15.87-17.455
			c0.388-8.141,6.574-15.849,17.714-15.845c9.146,0.574,16.044,8.356,15.612,17.431C172.126,471.618,164.231,478.66,155.112,478.205
			z M191.503,411.552l16.849-50.828c15.201,4.09,31.171,6.286,47.647,6.286c16.575,0,32.638-2.222,47.921-6.36l17.88,50.95
			L191.503,411.552z M256,333.645c-77.148,0-140.893-58.605-149.219-133.569H405.22C396.892,275.041,333.147,333.645,256,333.645z"
			/>
	</g>
</g>
<g>
	<g>
		<path d="M199.28,53.384c-7.767-5.825-7.777-17.522,0-23.355c7.37-5.528,8.865-15.985,3.336-23.355
			c-5.527-7.371-15.983-8.865-23.355-3.336c-25.523,19.141-25.552,57.576,0,76.738c7.767,5.825,7.777,17.522,0,23.355
			c-7.37,5.529-8.865,15.985-3.336,23.355c5.526,7.37,15.983,8.865,23.355,3.336C224.803,110.981,224.832,72.547,199.28,53.384z"/>
	</g>
</g>
<g>
	<g>
		<path d="M266.009,53.384c-7.767-5.825-7.777-17.522,0-23.355c7.37-5.528,8.865-15.985,3.336-23.355
			c-5.527-7.371-15.983-8.865-23.355-3.336c-25.523,19.141-25.552,57.576,0,76.738c7.767,5.825,7.777,17.522,0,23.355
			c-7.37,5.529-8.865,15.985-3.336,23.355c5.526,7.37,15.983,8.865,23.355,3.336C291.532,110.981,291.561,72.547,266.009,53.384z"/>
	</g>
</g>
<g>
	<g>
		<path d="M332.738,53.384c-7.767-5.825-7.777-17.522,0-23.355c7.37-5.528,8.865-15.985,3.336-23.355
			c-5.527-7.371-15.983-8.865-23.355-3.336c-25.523,19.141-25.552,57.576,0,76.738c7.767,5.825,7.777,17.522,0,23.355
			c-7.37,5.529-8.865,15.985-3.336,23.355c5.526,7.37,15.983,8.865,23.355,3.336C358.261,110.981,358.289,72.547,332.738,53.384z"/>
	</g>
</g>
<g>
</g>
<g>
</g>
<g>
</g>
<g>
</g>
<g>
</g>
<g>
</g>
<g>
</g>
<g>
</g>
<g>
</g>
<g>
</g>
<g>
</g>
<g>
</g>
<g>
</g>
<g>
</g>
<g>
</g>
</svg>
