<?xml version="1.0" encoding="utf-8"?>
<!-- Generator: Adobe Illustrator 16.0.0, SVG Export Plug-In . SVG Version: 6.00 Build 0)  -->
<!DOCTYPE svg PUBLIC "-//W3C//DTD SVG 1.1//EN" "http://www.w3.org/Graphics/SVG/1.1/DTD/svg11.dtd">
<svg version="1.1" id="Capa_1" xmlns="http://www.w3.org/2000/svg" xmlns:xlink="http://www.w3.org/1999/xlink" x="0px" y="0px"
	 width="768px" height="1024px" viewBox="0 0 192.033 192.033" enable-background="new 0 0 192.033 192.033"
	 xml:space="preserve">
<g>
	<path fill="#363636" d="M191.112,105.985c1.693-8.272,1.127-16.984-2.34-25.275c-10.09-24.138-39.793-28.733-61.787-20.54
		c-1.016,0.378-1.769,0.981-2.314,1.694c-17.68-10.29-25.467-30.676-42.222-42.138c-18.314-12.529-40.691-9.76-59.028,1.571
		c-8.107,5.01-13.427,11.406-16.567,18.592c-0.305,0.214-0.563,0.508-0.69,0.925c-7.937,26.091-9.113,56.953,1.856,82.479
		c11.96,27.832,36.085,43.608,64.361,52.104c51.048,15.34,126.41-2.48,118.868-68.976
		C191.229,106.258,191.147,106.14,191.112,105.985z M55.633,20.416c31.655-2.202,40.623,39.367,67.979,47.297
		c0.226,0.065,0.43,0.046,0.641,0.057c0.943,1.798,2.85,2.945,5.387,2.026c25.549-9.251,57.242,3.893,50.938,35.229
		c-4.963,24.668-33.031,34.035-54.771,35.683c-35.817,2.713-77.596-10.198-98.753-40.367C4.531,68.226,9.677,23.613,55.633,20.416z
		 M70.252,165.718c-25.413-7.385-46.366-23.832-56.043-48.758c-4.132-10.643-5.702-21.833-6.072-33.173
		c5.379,14.776,14.488,28.634,23.893,38.04c31.166,31.17,95.743,39.658,133.753,18.344c6.259-3.51,11.677-8.311,15.954-13.9
		C170.217,171.363,112.499,177.996,70.252,165.718z"/>
	<path fill="#363636" d="M84.964,69.353c-1.868-9.725-8.698-17.135-16.786-22.379c-4.467-2.896-11.089-5.737-17.103-5.659
		c0.03-1.174-0.814-2.337-2.187-1.786c-12.891,5.173-20.632,16.387-15.376,30.192c4.43,11.636,16.542,21.375,28.851,23.203
		C75.947,94.943,87.624,83.207,84.964,69.353z M60.539,84.551c-8.493-2.314-15.653-9.136-19.567-16.831
		c-3.835-7.538-1.119-14.599,3.927-20.086c0.174,0.049,0.341,0.111,0.532,0.126c13.34,1.002,30.307,8.983,31.947,24.236
		C78.487,82.323,69.142,86.894,60.539,84.551z"/>
	<path fill="#363636" d="M63.447,62.258c-2.584-2.846-7.726-4.963-11.359-5.869c-2.375-0.592-4.762,2.535-2.908,4.393
		c-0.395,3.872-0.954,7.773,0.656,11.443c2.144,4.886,8.817,5.414,13.355,5.5c1.17,0.022,2.576-0.883,2.773-2.111
		C66.727,70.838,66.883,66.043,63.447,62.258z M54.458,69.321c-0.72-1.83-0.885-3.903-0.951-5.968
		c1.575,0.708,3.182,1.36,4.672,2.256c2.286,1.375,2.627,3.899,2.468,6.357C58.174,71.898,55.309,71.486,54.458,69.321z"/>
</g>
</svg>
