<?xml version="1.0" encoding="utf-8"?>
<!-- Generator: Adobe Illustrator 16.0.0, SVG Export Plug-In . SVG Version: 6.00 Build 0)  -->
<!DOCTYPE svg PUBLIC "-//W3C//DTD SVG 1.1//EN" "http://www.w3.org/Graphics/SVG/1.1/DTD/svg11.dtd">
<svg version="1.1" id="Layer_1" xmlns="http://www.w3.org/2000/svg" xmlns:xlink="http://www.w3.org/1999/xlink" x="0px" y="0px"
	 width="768px" height="1024px" viewBox="0 0 768 1024" enable-background="new 0 0 768 1024" xml:space="preserve">
<g>
	<path fill="#363636" d="M287.153,428.891c-0.812,4.266,1.309,8.551,5.192,10.495c3.884,1.941,8.584,1.064,11.512-2.141
		c22.102-24.193,44.763-58.701,33.091-90.201c-17.652-47.647-34.987-68.794-27.228-104.687c0.507-2.343-0.659-4.727-2.818-5.763
		c-2.159-1.039-4.753-0.463-6.265,1.395c-14.633,17.987-33.446,49.876-27.944,90.639
		C278.958,375.017,292.861,398.924,287.153,428.891L287.153,428.891z"/>
	<path fill="#363636" d="M158.58,455.163c-0.812,4.266,1.309,8.55,5.192,10.494c3.884,1.942,8.584,1.065,11.512-2.14
		c22.102-24.194,44.763-58.701,33.09-90.202c-17.652-47.648-34.987-68.794-27.227-104.687c0.506-2.343-0.659-4.727-2.818-5.763
		s-4.753-0.463-6.265,1.395c-14.633,17.987-33.447,49.876-27.944,90.639C150.383,401.289,164.286,425.196,158.58,455.163
		L158.58,455.163z"/>
	<path fill="#363636" d="M415.729,445.609c-0.813,4.266,1.309,8.551,5.192,10.494c3.883,1.944,8.583,1.065,11.512-2.14
		c22.102-24.194,44.763-58.701,33.091-90.201c-17.652-47.648-34.987-68.794-27.228-104.687c0.507-2.343-0.659-4.727-2.818-5.763
		c-2.159-1.036-4.753-0.463-6.265,1.395c-14.636,17.987-33.446,49.876-27.943,90.638
		C407.531,391.735,421.434,415.643,415.729,445.609L415.729,445.609z"/>
	<path fill="#363636" d="M768,591.646c0-53.02-43.134-96.156-96.155-96.156H72.446c-21.297,0-41.419,9.313-55.207,25.551
		C3.427,537.304-2.503,558.693,0.975,579.724c20.174,122.071,155.583,208.195,311.454,208.195
		c111.453,0,212.209-43.661,268.264-113.788l75.587,12.4C714.979,696.163,768,650.703,768,591.646z M714.359,591.646
		c0,26.214-23.532,46.2-49.398,41.953l-99.613-16.343c-5.812-0.953-11.632,1.686-14.741,6.687
		c-40.414,64.985-131.843,110.336-238.18,110.336c-133.383,0-243.336-71.346-258.533-163.305
		c-0.901-5.443,0.659-11.011,4.229-15.216c3.571-4.204,8.806-6.633,14.321-6.633c10.938,0,589.546,0,599.398,0
		C695.324,549.128,714.359,568.164,714.359,591.646L714.359,591.646z"/>
</g>
</svg>
