<?xml version="1.0" encoding="utf-8"?>
<!-- Generator: Adobe Illustrator 16.0.0, SVG Export Plug-In . SVG Version: 6.00 Build 0)  -->
<!DOCTYPE svg PUBLIC "-//W3C//DTD SVG 1.1//EN" "http://www.w3.org/Graphics/SVG/1.1/DTD/svg11.dtd">
<svg version="1.1" id="Capa_1" xmlns="http://www.w3.org/2000/svg" xmlns:xlink="http://www.w3.org/1999/xlink" x="0px" y="0px"
	 width="768px" height="1024px" viewBox="0 0 768 1024" enable-background="new 0 0 768 1024" xml:space="preserve">
<path fill="#363636" d="M758.198,235.951c-6.326-7.797-14.801-13.056-24.265-15.035c-3.97-9.099-10.752-16.401-19.591-21.127
	c-16.792-8.982-37.997-5.949-51.626,7.29c-10.31,10.037-15.034,23.9-12.991,38.075c0.651,4.504,0.925,13.043-4.556,19.708
	l-42.996,52.16c-0.638-0.117-1.224-0.273-1.861-0.391l-1.809-0.313l-1.823,0.208c-4.556,0.507-8.877,1.705-13.069,3.228
	c-9.294,3.372-17.599,8.943-23.964,16.649c-0.144,0.182-0.326,0.352-0.469,0.534c-2.396,2.877-4.946,5.61-7.511,8.331
	c-1.836,1.914-3.697,3.814-5.715,5.728c-46.458-12.77-116.751-11.078-199.397,59.788c-1.483,1.275-3.149,2.785-4.998,4.465
	c-3.319,3.033-7.276,6.534-11.638,9.958c0.014-5.324-0.234-10.609-0.938-15.776c-5.181-38.349-29.874-71.66-71.412-96.328
	c-9.919-5.857-22.208-5.818-32.035,0.156c-9.906,6.027-15.634,16.988-14.957,28.599c0.638,11.091-1.9,24.499-7.081,39.455
	c-6.3-2.187-12.731-3.384-19.448-3.384c-81.422-0.039-131.981,53.37-131.981,139.361c0,7.993,0.807,15.999,2.369,23.783
	c4.1,20.358,4.452,38.14,1.08,54.347c-2.291,10.999-3.449,22.233-3.449,33.376c0,20.775,5.493,39.533,15.79,56.182
	c-8.123,7.642-14.735,16.87-19.669,27.219H25.123c-9.45,0-18.002,5.207-22.324,13.616s-3.593,18.394,1.9,26.087l29.419,41.186
	c16.219,22.716,42.566,36.267,70.462,36.267h532.818c27.896,0,54.243-13.551,70.462-36.267l29.433-41.186
	c5.493-7.693,6.222-17.678,1.9-26.087c-4.322-8.409-12.874-13.616-22.325-13.616h-36.083c-1.627-3.423-3.463-6.678-5.48-9.828
	c35.706-27.439,58.135-61.193,66.414-100.635c11.663-55.506-40.796-122.401-93.685-181.929c1.627-2.108,3.149-4.243,4.855-6.313
	c0.038-0.039,0.064-0.091,0.104-0.13l1.549-2.356c0.508-0.989,9.49-19.07,7.706-39.793l45.313-54.958
	c5.479-6.665,13.928-8.019,18.458-8.24c14.306-0.69,27.023-7.979,34.899-20.008C771.307,272.1,770.187,250.7,758.198,235.951z
	 M619.266,414.886l-4.66,6.625l0.195,0.222c-21.687,33.545-34.756,70.475-37.841,108.368c-1.653,20.202-9.359,39.182-22.299,54.894
	c-17.403,21.101-42.032,33.831-69.329,35.823c-27.297,1.9-53.526-7.068-73.872-25.488c-38.453-34.82-43.022-95.871-10.167-136.134
	c14.488-17.755,33.975-29.613,56.364-34.3c36.084-7.537,68.158-22.845,94.648-44.688l0.052,0.013l0.508-0.456
	c5.818-4.842,11.364-9.984,16.623-15.464c2.916-2.981,5.545-6.001,8.136-9.034c0.677-0.794,1.432-1.51,2.096-2.317
	c4.556-5.52,10.935-9.138,18.133-10.349c2.655,0.495,4.855,1.21,7.237,1.848c3.515,0.938,6.704,2.018,9.607,3.215
	c0.989,0.417,1.979,0.82,2.89,1.276c1.822,0.872,3.501,1.81,5.037,2.799c1.497,0.976,2.903,2.004,4.166,3.111
	c0.846,0.729,1.653,1.471,2.382,2.265c1.38,1.51,2.564,3.111,3.541,4.803c0.585,1.015,1.132,2.057,1.574,3.15
	c0.104,0.247,0.195,0.507,0.287,0.755c0.494,1.314,0.911,2.668,1.197,4.087l0.026,0.117c2.382,11.924-2.383,24.394-3.971,28.039
	C627.362,403.548,623.223,409.184,619.266,414.886z M239.061,335.468c0.963-0.586,2.941-1.354,5.22-0.013
	c24.03,14.28,53.748,39.286,58.89,77.426c1.354,10.023,0.937,20.528-1.081,31.449l-0.468,2.291
	c-4.673,22.65-16.454,47.188-35.134,73.365c-0.156,0.221-0.325,0.455-0.481,0.677c-7.121,9.919-15.269,20.072-24.355,30.447
	c-0.911,1.041-1.849,2.096-2.786,3.149c-4.439,4.986-9.034,9.998-13.929,15.074c-8.344,8.656-16.519,15.438-24.316,20.242
	c-12.653,7.784-24.303,10.296-34.144,7.328c-0.26-0.078-0.547-0.078-0.807-0.169c-11.897-4.062-20.75-17.222-22.546-33.559
	c-0.065-0.547,0.039-1.132-0.013-1.679c-0.716-9.542,1.275-19.409,5.063-29.367c7.133-18.744,20.268-37.775,32.452-55.297
	c1.159-1.679,2.187-3.241,3.32-4.881c3.163-4.569,6.352-9.139,9.203-13.513c0.585-0.897,1.093-1.77,1.666-2.668
	c2.187-3.411,4.4-6.873,6.613-10.557c1.835-3.047,3.527-6.054,5.22-9.061c0.898-1.575,1.796-3.072,2.682-4.673
	c5.129-9.359,9.606-18.484,13.355-27.284l4.322-10.153l-0.377-0.234c6.665-18.055,10.921-36.461,9.945-53.461
	C236.392,337.511,238.058,336.08,239.061,335.468z M93.294,697.774c2.525-1.757,5.129-3.346,7.823-4.712
	c0.417-0.208,0.859-0.352,1.276-0.56c2.252-1.081,4.556-2.005,6.899-2.813c1.002-0.338,2.018-0.624,3.033-0.924
	c1.953-0.56,3.944-1.028,5.949-1.406c0.963-0.182,1.927-0.39,2.916-0.521c2.955-0.403,5.949-0.677,8.982-0.677
	c3.098,0,6.144,0.286,9.164,0.716c0.898,0.131,1.783,0.313,2.668,0.481c2.174,0.404,4.322,0.925,6.43,1.536
	c0.873,0.261,1.757,0.495,2.617,0.794c2.616,0.898,5.168,1.927,7.641,3.125c0.208,0.104,0.417,0.169,0.625,0.273
	c2.655,1.34,5.181,2.89,7.615,4.568c0.703,0.481,1.38,1.028,2.07,1.536c1.744,1.314,3.437,2.708,5.051,4.179
	c0.677,0.611,1.354,1.224,1.992,1.874c1.848,1.849,3.605,3.802,5.22,5.871c0.234,0.3,0.495,0.56,0.729,0.859
	c0.052,0.064,0.091,0.143,0.13,0.208H78.181C82.425,706.574,87.554,701.745,93.294,697.774z M235.298,711.13
	c1.627-2.069,3.372-4.022,5.22-5.87c0.651-0.639,1.328-1.25,1.992-1.875c1.614-1.483,3.293-2.877,5.051-4.179
	c0.69-0.521,1.354-1.054,2.07-1.536c2.434-1.679,4.959-3.241,7.615-4.568c0.208-0.104,0.417-0.17,0.625-0.273
	c2.46-1.211,5.024-2.239,7.641-3.124c0.859-0.3,1.744-0.534,2.616-0.794c2.109-0.625,4.244-1.133,6.431-1.536
	c0.885-0.17,1.771-0.352,2.668-0.481c3.007-0.43,6.066-0.717,9.164-0.717s6.144,0.287,9.164,0.717
	c0.898,0.13,1.784,0.312,2.668,0.481c2.174,0.403,4.322,0.924,6.431,1.536c0.872,0.26,1.757,0.494,2.617,0.794
	c2.616,0.897,5.168,1.927,7.641,3.124c0.209,0.104,0.417,0.169,0.625,0.273c2.655,1.341,5.181,2.89,7.615,4.568
	c0.703,0.482,1.38,1.029,2.069,1.536c1.744,1.315,3.437,2.708,5.051,4.179c0.677,0.612,1.354,1.224,1.992,1.875
	c1.848,1.848,3.605,3.801,5.22,5.87c0.234,0.3,0.494,0.56,0.729,0.859c0.052,0.065,0.091,0.144,0.13,0.208H234.465
	c0.052-0.064,0.091-0.143,0.13-0.208C234.804,711.689,235.064,711.43,235.298,711.13z M391.504,711.13
	c1.628-2.069,3.372-4.022,5.221-5.87c0.65-0.639,1.327-1.25,1.991-1.875c1.614-1.483,3.293-2.877,5.051-4.179
	c0.689-0.521,1.354-1.054,2.069-1.536c2.435-1.679,4.96-3.241,7.615-4.568c0.208-0.104,0.417-0.17,0.625-0.273
	c2.46-1.211,5.024-2.239,7.641-3.124c0.859-0.3,1.745-0.534,2.617-0.794c2.108-0.625,4.243-1.133,6.431-1.536
	c0.885-0.17,1.77-0.352,2.668-0.481c3.007-0.43,6.066-0.717,9.164-0.717c3.099,0,6.145,0.287,9.164,0.717
	c0.898,0.13,1.783,0.312,2.669,0.481c2.174,0.403,4.321,0.924,6.43,1.536c0.873,0.26,1.758,0.494,2.617,0.794
	c2.616,0.897,5.168,1.927,7.641,3.124c0.209,0.104,0.417,0.169,0.625,0.273c2.655,1.341,5.181,2.89,7.615,4.568
	c0.703,0.482,1.38,1.029,2.069,1.536c1.744,1.315,3.437,2.708,5.051,4.179c0.677,0.612,1.354,1.224,1.992,1.875
	c1.848,1.848,3.605,3.801,5.22,5.87c0.234,0.3,0.494,0.56,0.729,0.859c0.053,0.065,0.092,0.144,0.131,0.208H390.671
	c0.053-0.064,0.092-0.143,0.131-0.208C391.01,711.689,391.271,711.43,391.504,711.13z M547.711,711.13
	c1.627-2.069,3.371-4.022,5.22-5.87c0.65-0.639,1.327-1.25,1.991-1.875c1.614-1.483,3.293-2.877,5.051-4.179
	c0.689-0.521,1.354-1.054,2.069-1.536c2.435-1.679,4.96-3.241,7.615-4.568c0.208-0.104,0.417-0.17,0.625-0.273
	c2.46-1.211,5.024-2.239,7.642-3.124c0.858-0.3,1.744-0.534,2.616-0.794c2.108-0.625,4.243-1.133,6.431-1.536
	c0.885-0.17,1.77-0.352,2.668-0.481c3.007-0.43,6.066-0.717,9.164-0.717c2.421,0,4.816,0.17,7.198,0.43
	c1.289,0.144,2.539,0.404,3.814,0.625c1.016,0.169,2.03,0.325,3.02,0.547c1.731,0.391,3.437,0.885,5.129,1.419
	c0.43,0.13,0.872,0.261,1.302,0.403c2.044,0.69,4.062,1.484,6.027,2.369l0,0c8.279,3.775,15.803,9.308,22.012,16.337l3.449,3.905
	H546.852c0.052-0.065,0.091-0.144,0.13-0.209C547.216,711.689,547.477,711.43,547.711,711.13z M715.046,738.232l-28.377,39.728
	c-11.352,15.881-29.771,25.357-49.283,25.357H104.58c-19.513,0-37.932-9.489-49.283-25.357l-28.377-39.729h11.26h156.206h0.144
	h27.466h0.144h128.44h0.144h27.466h0.144h128.44h0.144h27.466h0.144H690.73L715.046,738.232L715.046,738.232z M716.218,596.396
	c-7.056,33.546-26.49,62.548-57.822,86.291c-0.664-0.572-1.38-1.08-2.057-1.64c-2.825-2.317-5.754-4.479-8.839-6.443
	c-1.563-1.003-3.15-1.953-4.765-2.864c-1.64-0.911-3.254-1.835-4.946-2.643c-2.968-1.432-6.04-2.643-9.138-3.749
	c-1.263-0.442-2.538-0.872-3.827-1.263c-3.58-1.093-7.225-1.979-10.922-2.616c-0.807-0.13-1.627-0.222-2.447-0.339
	c-4.178-0.599-8.408-1.002-12.679-1.002c-4.478,0-8.864,0.403-13.199,1.041c-1.405,0.209-2.772,0.561-4.165,0.834
	c-2.903,0.572-5.767,1.21-8.578,2.057c-1.575,0.468-3.099,1.028-4.635,1.574c-2.564,0.925-5.076,1.94-7.537,3.086
	c-1.496,0.689-2.98,1.405-4.451,2.174c-2.461,1.314-4.816,2.76-7.146,4.295c-1.275,0.833-2.564,1.614-3.801,2.5
	c-2.76,2.018-5.377,4.217-7.902,6.534c-0.638,0.586-1.34,1.081-1.965,1.692c-3.046,2.968-5.871,6.157-8.5,9.542
	c-0.82,1.054-1.497,2.187-2.266,3.28c-1.341,1.887-2.746,3.723-3.944,5.714c-1.197-1.991-2.604-3.813-3.944-5.701
	c-0.768-1.094-1.457-2.239-2.277-3.294c-2.63-3.384-5.454-6.573-8.5-9.528c-0.625-0.599-1.328-1.106-1.966-1.692
	c-2.525-2.316-5.129-4.517-7.901-6.534c-1.224-0.898-2.525-1.666-3.802-2.499c-2.33-1.523-4.686-2.981-7.146-4.296
	c-1.458-0.781-2.942-1.484-4.452-2.187c-2.46-1.146-4.973-2.161-7.537-3.086c-1.536-0.546-3.059-1.106-4.634-1.574
	c-2.813-0.847-5.676-1.484-8.578-2.058c-1.394-0.272-2.76-0.624-4.166-0.833c-4.335-0.638-8.734-1.041-13.199-1.041
	s-8.865,0.403-13.199,1.041c-1.406,0.209-2.773,0.561-4.166,0.833c-2.902,0.573-5.767,1.211-8.578,2.058
	c-1.575,0.468-3.098,1.028-4.634,1.574c-2.564,0.925-5.077,1.939-7.537,3.086c-1.497,0.689-2.981,1.405-4.452,2.174
	c-2.46,1.314-4.816,2.759-7.146,4.295c-1.275,0.833-2.564,1.614-3.801,2.5c-2.76,2.018-5.376,4.217-7.901,6.534
	c-0.638,0.586-1.341,1.08-1.966,1.692c-3.046,2.968-5.871,6.157-8.5,9.542c-0.82,1.054-1.497,2.187-2.265,3.28
	c-1.354,1.887-2.76,3.723-3.958,5.714c-1.197-1.991-2.604-3.813-3.944-5.701c-0.768-1.094-1.457-2.239-2.277-3.294
	c-2.63-3.384-5.454-6.573-8.5-9.528c-0.625-0.599-1.328-1.106-1.966-1.692c-2.525-2.316-5.129-4.517-7.901-6.534
	c-1.224-0.898-2.525-1.666-3.802-2.499c-2.33-1.523-4.686-2.981-7.146-4.296c-1.458-0.781-2.942-1.484-4.452-2.187
	c-2.46-1.146-4.973-2.161-7.537-3.086c-1.536-0.546-3.059-1.106-4.634-1.574c-2.813-0.847-5.676-1.484-8.579-2.058
	c-1.393-0.272-2.76-0.624-4.166-0.833c-4.335-0.638-8.734-1.041-13.199-1.041s-8.865,0.403-13.2,1.041
	c-1.406,0.209-2.772,0.561-4.166,0.833c-2.903,0.573-5.767,1.211-8.578,2.058c-1.575,0.468-3.098,1.028-4.634,1.574
	c-2.564,0.925-5.077,1.939-7.537,3.086c-1.497,0.689-2.981,1.405-4.452,2.174c-2.46,1.314-4.816,2.759-7.146,4.295
	c-1.275,0.833-2.564,1.614-3.801,2.5c-2.76,2.018-5.376,4.217-7.901,6.534c-0.638,0.586-1.341,1.08-1.966,1.692
	c-3.046,2.968-5.871,6.157-8.5,9.542c-0.82,1.054-1.497,2.187-2.265,3.28c-1.354,1.887-2.76,3.723-3.957,5.714
	c-1.198-1.991-2.604-3.813-3.944-5.701c-0.768-1.094-1.458-2.239-2.278-3.294c-2.63-3.384-5.455-6.573-8.5-9.528
	c-0.625-0.599-1.328-1.106-1.965-1.692c-2.525-2.316-5.129-4.517-7.902-6.534c-1.223-0.898-2.525-1.666-3.801-2.499
	c-2.33-1.523-4.686-2.981-7.146-4.296c-1.458-0.781-2.942-1.484-4.452-2.187c-2.46-1.146-4.973-2.161-7.537-3.086
	c-1.536-0.546-3.059-1.106-4.634-1.574c-2.812-0.847-5.675-1.484-8.578-2.058c-1.393-0.272-2.76-0.624-4.166-0.833
	c-4.335-0.638-8.734-1.041-13.199-1.041c-4.361,0-8.669,0.403-12.926,1.016c-1.146,0.169-2.278,0.403-3.411,0.611
	c-3.228,0.586-6.417,1.354-9.554,2.291c-1.055,0.313-2.109,0.612-3.164,0.964c-3.723,1.263-7.38,2.72-10.921,4.478
	c-0.273,0.13-0.56,0.234-0.833,0.364c-0.156,0.078-0.325,0.13-0.481,0.208c-7.238-12.21-10.778-25.813-10.778-41.264
	c0-9.373,0.976-18.811,2.903-28.065c4.101-19.733,3.762-40.926-1.054-64.813c-1.237-6.104-1.849-12.366-1.849-18.628
	c0-34.078,10.323-113.366,105.934-113.366c3.241,0,6.353,0.456,9.424,1.354c-0.507,1.067-1.054,2.135-1.588,3.216
	c-2.057,4.113-4.256,8.278-6.613,12.522c-0.989,1.771-1.939,3.527-2.981,5.324c-3.397,5.857-6.99,11.807-10.947,17.859
	c-3.736,5.728-7.862,11.663-12.093,17.742c-15.842,22.793-33.116,47.813-39.664,74.354c-1.289,5.193-2.265,10.427-2.629,15.737
	c-0.313,4.634-0.248,9.308,0.273,14.02c2.955,26.725,18.302,47.916,40.041,55.31c2.135,0.729,4.621,1.38,7.381,1.888
	c0.208,0.039,0.417,0.065,0.625,0.104c2.694,0.455,5.649,0.729,8.877,0.755c0.144,0,0.248,0.039,0.391,0.039
	c0.13,0,0.273-0.026,0.404-0.026c1.965-0.013,4.009-0.117,6.157-0.352c0.156-0.013,0.326-0.052,0.482-0.064
	c1.953-0.234,3.996-0.586,6.105-1.042c0.521-0.117,1.042-0.234,1.575-0.352c2.213-0.533,4.478-1.158,6.834-1.965
	c0.13-0.039,0.247-0.078,0.377-0.117c2.473-0.859,5.038-1.939,7.654-3.15c0.612-0.273,1.224-0.599,1.835-0.898
	c2.174-1.067,4.387-2.265,6.652-3.593c0.586-0.352,1.171-0.664,1.757-1.028c2.773-1.705,5.598-3.593,8.487-5.728
	c0.547-0.403,1.093-0.859,1.64-1.275c2.408-1.836,4.868-3.84,7.354-6.001c0.82-0.716,1.64-1.419,2.474-2.174
	c3.059-2.76,6.157-5.688,9.32-8.981c4.972-5.168,9.659-10.284,14.214-15.374c1.211-1.354,2.382-2.694,3.554-4.048
	c3.684-4.205,7.212-8.383,10.596-12.536c0.768-0.937,1.562-1.887,2.317-2.824c4.101-5.116,7.979-10.192,11.625-15.23
	c0.469-0.65,0.898-1.288,1.354-1.926c3.189-4.466,6.196-8.904,9.034-13.304c0.599-0.938,1.224-1.875,1.81-2.812
	c6.274-9.972,11.624-19.761,16.037-29.354c0.391-0.846,0.755-1.679,1.119-2.525c1.888-4.243,3.605-8.461,5.129-12.626
	c0.208-0.573,0.456-1.172,0.664-1.744c1.692-4.777,3.15-9.516,4.348-14.202c0.026-0.091,0.052-0.169,0.078-0.261
	c14.709-6.964,25.839-17.13,33.545-24.159c1.614-1.472,3.072-2.813,4.387-3.944c52.446-44.961,105.7-64.708,155.646-58.317
	c-19.708,12.756-42.149,22.064-66.804,27.232c-27.883,5.818-53.162,21.205-71.204,43.321
	c-41.473,50.806-35.706,127.919,12.874,171.878c23.34,21.141,52.837,32.491,83.896,32.491c3.098,0,6.223-0.104,9.347-0.325
	c34.456-2.513,65.541-18.589,87.514-45.248c16.337-19.825,26.074-43.803,28.17-69.329c2.551-31.333,12.782-62.053,29.874-90.365
	C669.083,482.861,725.668,551.423,716.218,596.396z M739.102,273.753c-3.254,4.972-8.487,7.979-14.357,8.266
	c-15.27,0.742-28.521,7.029-37.308,17.69l-35.862,43.503c-5.559-7.303-13.056-13.277-22.559-17.859l36.227-43.933
	c8.787-10.661,12.432-24.863,10.245-39.989c-0.833-5.819,1.119-11.546,5.376-15.686c5.506-5.376,14.423-6.626,21.205-2.994
	c3.684,1.966,6.378,4.855,8.019,8.617c3.332,7.576,9.866,12.965,17.977,14.801c3.957,0.872,7.303,2.968,9.919,6.196l0.013,0.026
	C742.851,258.328,743.319,267.323,739.102,273.753z"/>
</svg>
