<?xml version="1.0" encoding="utf-8"?>
<!-- Generator: Adobe Illustrator 16.0.0, SVG Export Plug-In . SVG Version: 6.00 Build 0)  -->
<!DOCTYPE svg PUBLIC "-//W3C//DTD SVG 1.1//EN" "http://www.w3.org/Graphics/SVG/1.1/DTD/svg11.dtd">
<svg version="1.1" id="Layer_1" xmlns="http://www.w3.org/2000/svg" xmlns:xlink="http://www.w3.org/1999/xlink" x="0px" y="0px"
	 width="768px" height="1024px" viewBox="0 0 768 1024" enable-background="new 0 0 768 1024" xml:space="preserve">
<g>
	<g>
		<g>
			<path fill="#363636" d="M743.93,546.123L608.181,410.362c-98.745-98.746-225.188-107.001-322.129-21.042
				c-5.285,4.684-5.773,12.773-1.075,18.061c4.672,5.285,12.761,5.785,18.061,1.087c85.971-76.244,198.655-68.412,287.046,19.992
				l135.749,135.761c18.238,18.252,21.566,50.147,9.356,89.85c-13.069,42.48-42.11,87.713-81.762,127.364
				c-39.639,39.64-84.871,68.681-127.352,81.748c-39.69,12.21-71.598,8.896-89.851-9.356
				c-39.241-39.242-6.092-138.717,72.394-217.202c46.076-46.063,99.424-77.603,146.37-86.522
				c6.938-1.318,11.506-8.012,10.189-14.961c-1.318-6.938-7.962-11.545-14.962-10.176c-51.876,9.856-110.085,43.952-159.694,93.563
				c-63.881,63.881-98.503,137.463-96.275,193.331l-93.78-93.779c-81.889-81.877-94.509-188.57-32.229-271.981
				c4.351-5.018,4.134-12.633-0.641-17.406L130.889,291.982c-2.394-2.394-5.657-3.75-9.049-3.75
				c-3.712,0.141-6.655,1.356-9.063,3.775c-9.766,9.778-22.539,15.179-35.978,15.179c-28.235,0-51.196-22.974-51.196-51.196
				c0-24.639,17.612-45.77,41.892-50.236c0.025,0,0.051-0.025,0.09-0.025c0.051-0.012,0.116-0.012,0.167-0.025
				c3.354-0.692,5.554-0.909,9.049-0.909c3.277,0,6.579,0.308,9.778,0.935c7.027,1.332,13.657-3.213,15-10.15
				c1.332-6.937-3.212-13.657-10.149-14.989c-2.598-0.499-5.286-0.525-7.948-0.754c8.832-15.807,25.599-26.238,44.516-26.238
				c28.222,0,51.196,22.962,51.196,51.196c0,13.453-5.401,26.226-15.181,35.978c-2.419,2.394-3.763,5.658-3.775,9.049
				c0,3.405,1.344,6.668,3.75,9.063l102.15,102.151c4.992,5.003,13.094,5.003,18.098,0c4.992-5.005,4.992-13.106,0-18.098
				l-93.805-93.817c9.331-12.94,14.36-28.287,14.36-44.324c0-42.353-34.456-76.795-76.795-76.795
				C93.861,128,64.23,150.501,54.58,182.589c-32.087,9.637-54.576,39.268-54.576,73.402c0,42.339,34.442,76.795,76.795,76.795
				c16.037,0,31.384-5.031,44.324-14.36l120.67,120.658c-63.548,92.857-48.175,208.357,40.574,297.094l135.76,135.749
				c15.949,15.96,38.181,24.075,64.776,24.075c15.538-0.014,32.562-2.778,50.698-8.357c46.396-14.271,95.393-45.565,137.924-88.109
				c42.557-42.544,73.851-91.539,88.122-137.937C774.789,612.409,769.207,571.389,743.93,546.123z"/>
			<path fill="#363636" d="M551.764,679.746c-26.942,26.942-34.659,59.849-17.982,76.526c5.746,5.746,13.67,8.78,22.911,8.78
				c16.818,0,36.861-9.997,53.615-26.763c11.647-11.646,20.274-25.227,24.268-38.205c4.851-15.794,2.623-29.388-6.297-38.308
				c-5.746-5.734-13.67-8.78-22.911-8.78C588.548,652.995,568.504,663.004,551.764,679.746z M610.103,692.545
				c-2.752,8.946-9.267,19.02-17.894,27.646c-13.312,13.312-27.429,19.264-35.518,19.264c-1.318,0-3.688-0.167-4.813-1.279
				c-3.826-3.84,0.179-22.527,17.982-40.33c13.299-13.298,27.403-19.249,35.505-19.249c1.318,0,3.698,0.166,4.813,1.293
				C611.586,681.294,612.162,685.851,610.103,692.545z"/>
		</g>
	</g>
</g>
</svg>
