<?xml version="1.0" encoding="utf-8"?>
<!-- Generator: Adobe Illustrator 16.0.0, SVG Export Plug-In . SVG Version: 6.00 Build 0)  -->
<!DOCTYPE svg PUBLIC "-//W3C//DTD SVG 1.1//EN" "http://www.w3.org/Graphics/SVG/1.1/DTD/svg11.dtd">
<svg version="1.1" id="Layer_1" xmlns="http://www.w3.org/2000/svg" xmlns:xlink="http://www.w3.org/1999/xlink" x="0px" y="0px"
	 width="768px" height="1024px" viewBox="0 0 768 1024" enable-background="new 0 0 768 1024" xml:space="preserve">
<g>
	<path fill="#363636" d="M467.877,332.004H48.02v323.819h419.857V332.004L467.877,332.004z M444.182,632.128H71.715V355.7H444.18
		v276.426h0.002V632.128z"/>
	<rect x="600.252" y="331.849" fill="#363636" width="23.695" height="24.009"/>
	<rect x="600.252" y="379.873" fill="#363636" width="23.695" height="24.01"/>
	<rect x="600.252" y="427.88" fill="#363636" width="23.695" height="24.011"/>
	<rect x="648.102" y="332.006" fill="#363636" width="84.043" height="23.696"/>
	<rect x="648.102" y="380.03" fill="#363636" width="84.043" height="23.695"/>
	<rect x="648.102" y="428.037" fill="#363636" width="84.043" height="23.696"/>
	<path fill="#363636" d="M731.985,584.108H600.243v71.715h131.742V584.108z M708.289,632.128H623.94v-24.323h84.349V632.128z"/>
	<path fill="#363636" d="M0,271.98v443.866h36.015v36.171H59.71v-36.171h648.579v36.171h23.696v-36.171H768V271.98H0z
		 M564.229,692.15H23.695V295.678h540.534V692.15z M744.305,692.15H587.927V295.678h156.378V692.15z"/>
	<polygon fill="#363636" points="540.063,632.128 527.902,632.128 527.902,355.7 540.063,355.7 540.063,332.004 492.045,332.004 
		492.045,355.7 504.207,355.7 504.207,632.128 492.045,632.128 492.045,655.823 540.063,655.823 	"/>
	<path fill="#363636" d="M660.112,547.779c15.621,0,28.931-10.044,33.837-24.011h26.188v-23.695h-26.188
		c-4.903-13.966-18.216-24.009-33.837-24.009c-19.771,0-35.857,16.086-35.857,35.857S640.341,547.779,660.112,547.779z
		 M660.112,499.76c6.707,0,12.161,5.456,12.161,12.161c0,6.706-5.456,12.161-12.161,12.161s-12.16-5.457-12.16-12.161
		C647.952,505.216,653.406,499.76,660.112,499.76z"/>
	
		<rect x="147.594" y="482.069" transform="matrix(-0.7071 0.7071 -0.7071 -0.7071 789.5897 660.7752)" fill="#363636" width="220.7" height="23.696"/>
	
		<rect x="286.29" y="503.085" transform="matrix(-0.7071 0.7071 -0.7071 -0.7071 932.5414 643.5959)" fill="#363636" width="93.376" height="23.695"/>
	
		<rect x="156.071" y="453.965" transform="matrix(0.7071 0.7071 -0.7071 0.7071 394.1934 24.1718)" fill="#363636" width="23.695" height="67.91"/>
</g>
</svg>
