<?xml version="1.0" encoding="utf-8"?>
<!-- Generator: Adobe Illustrator 16.0.0, SVG Export Plug-In . SVG Version: 6.00 Build 0)  -->
<!DOCTYPE svg PUBLIC "-//W3C//DTD SVG 1.1//EN" "http://www.w3.org/Graphics/SVG/1.1/DTD/svg11.dtd">
<svg version="1.1" id="Capa_1" xmlns="http://www.w3.org/2000/svg" xmlns:xlink="http://www.w3.org/1999/xlink" x="0px" y="0px"
	 width="768px" height="1024px" viewBox="0 0 768 1024" enable-background="new 0 0 768 1024" xml:space="preserve">
<g id="Next_track_2">
	<path fill="#333333" d="M743.144,467.387l-312.629-263.99c-10.67-7.377-23.931-6.147-33.944-6.147
		c-40.045,0-39.867,35.873-39.867,44.966V442.27L73.817,203.396c-10.676-7.377-23.937-6.147-33.947-6.147
		C-0.175,197.252,0,233.125,0,242.215v539.566c0,7.687-0.175,44.967,39.871,44.967c10.01,0,23.271,1.229,33.947-6.147
		l282.886-238.873v200.054c0,7.687-0.178,44.967,39.867,44.967c10.014,0,23.274,1.229,33.944-6.147l312.629-263.987
		c29.643-20.466,24.52-44.613,24.52-44.613S772.786,487.849,743.144,467.387z"/>
</g>
</svg>
