<?xml version="1.0" encoding="utf-8"?>
<!-- Generator: Adobe Illustrator 16.0.0, SVG Export Plug-In . SVG Version: 6.00 Build 0)  -->
<!DOCTYPE svg PUBLIC "-//W3C//DTD SVG 1.1//EN" "http://www.w3.org/Graphics/SVG/1.1/DTD/svg11.dtd">
<svg version="1.1" id="Capa_1" xmlns="http://www.w3.org/2000/svg" xmlns:xlink="http://www.w3.org/1999/xlink" x="0px" y="0px"
	 width="768px" height="1024px" viewBox="0 0 768 1024" enable-background="new 0 0 768 1024" xml:space="preserve">
<g>
	<path fill="#363636" d="M218.188,372.951c18.676,0,37.332,0,55.987,0c67.2-81.65-67.19-163.301,0-244.951
		c-18.655,0-37.311,0-55.987,0C150.988,209.64,285.388,291.301,218.188,372.951z"/>
	<path fill="#363636" d="M353.587,372.951c18.675,0,37.331,0,55.996,0c67.2-81.65-67.2-163.301,0-244.951
		c-18.665,0-37.321,0-55.996,0C286.387,209.64,420.786,291.301,353.587,372.951z"/>
	<path fill="#363636" d="M488.995,372.951c18.676,0,37.321,0,55.996,0c67.2-81.65-67.199-163.301,0-244.951
		c-18.675,0-37.32,0-55.996,0C421.795,209.64,556.195,291.301,488.995,372.951z"/>
	<path fill="#363636" d="M716.955,610.995l-53.526,13.795v-48c32.46-10.356,56.037-40.79,56.037-76.639
		c0-44.37-36.091-80.461-80.461-80.461h-514.84c-44.37,0-80.46,36.102-80.46,80.461c0,35.849,23.577,66.252,56.027,76.639v46.76
		l-48.686-12.555c-21.58-5.566-43.573,7.392-49.14,28.981c-5.566,21.569,7.402,43.563,28.981,49.119l68.844,17.778v95.587
		c0,51.569,41.96,93.539,93.54,93.539h376.639c51.569,0,93.539-41.97,93.539-93.539v-94.347l73.664-19.019
		c21.58-5.557,34.548-27.55,28.981-49.119C760.508,618.396,738.484,605.438,716.955,610.995z M124.165,480.215h514.85
		c11.013,0,19.957,8.955,19.957,19.957c0,11.001-8.955,19.956-19.957,19.956h-514.85c-11.001,0-19.956-8.955-19.956-19.956
		C104.198,489.17,113.163,480.215,124.165,480.215z M569.899,835.516H193.261c-18.222,0-33.036-14.823-33.036-33.045V580.642
		h442.699v221.829C602.935,820.692,588.121,835.516,569.899,835.516z"/>
</g>
</svg>
