<?xml version="1.0" encoding="utf-8"?>
<!-- Generator: Adobe Illustrator 16.0.0, SVG Export Plug-In . SVG Version: 6.00 Build 0)  -->
<!DOCTYPE svg PUBLIC "-//W3C//DTD SVG 1.1//EN" "http://www.w3.org/Graphics/SVG/1.1/DTD/svg11.dtd">
<svg version="1.1" id="Layer_1" xmlns="http://www.w3.org/2000/svg" xmlns:xlink="http://www.w3.org/1999/xlink" x="0px" y="0px"
	 width="768px" height="1024px" viewBox="0 0 768 1024" enable-background="new 0 0 768 1024" xml:space="preserve">
<g>
	<g>
		<path fill="#363636" d="M690.019,351.463c-6.051-6.456-14.504-10.122-23.351-10.122H517.336v-96.857l120.074-55.42
			c16.047-7.407,23.051-26.419,15.643-42.465c-7.404-16.046-26.417-23.05-42.463-15.646l-138.665,64
			c-11.332,5.23-18.591,16.573-18.591,29.057v117.332h-64.396c-5.513-83.263-74.969-149.332-159.602-149.332
			c-88.224,0-159.999,71.774-159.999,159.998c0,88.225,71.774,159.999,159.999,159.999c17.444,0,34.713-2.915,51.091-8.434
			l23.644,362.512c1.098,16.83,15.067,29.918,31.931,29.918h298.663c16.864,0,30.836-13.088,31.931-29.918l32-490.662
			C699.174,366.594,696.066,357.919,690.019,351.463z M304.002,341.341c-8.849,0-17.3,3.663-23.351,10.122
			c-6.05,6.459-9.155,15.131-8.58,23.963l3.948,60.512c-14.167,7.929-30.049,12.072-46.681,12.072
			c-52.935,0-95.999-43.064-95.999-95.999s43.064-95.999,95.999-95.999c49.326,0,90.066,37.402,95.393,85.333h-20.729V341.341z
			 M341.047,449.657c-0.008-0.077-0.008-0.151-0.015-0.229l-2.877-44.091h115.179v64H342.332L341.047,449.657z M604.686,832.003
			H365.983L346.507,533.34h277.659L604.686,832.003z M628.338,469.34H517.336v-63.999h115.178L628.338,469.34z"/>
	</g>
</g>
</svg>
