<?xml version="1.0" encoding="utf-8"?>
<!-- Generator: Adobe Illustrator 16.0.0, SVG Export Plug-In . SVG Version: 6.00 Build 0)  -->
<!DOCTYPE svg PUBLIC "-//W3C//DTD SVG 1.1//EN" "http://www.w3.org/Graphics/SVG/1.1/DTD/svg11.dtd">
<svg version="1.1" id="Capa_1" xmlns="http://www.w3.org/2000/svg" xmlns:xlink="http://www.w3.org/1999/xlink" x="0px" y="0px"
	 width="768px" height="1024px" viewBox="0 0 768 1024" enable-background="new 0 0 768 1024" xml:space="preserve">
<g>
	<path fill="#2B2B2B" d="M743.795,527.04C759.642,504.333,768,478.093,768,451.161c0-59.161-40.409-114.022-102.95-139.75
		c-23.079-9.498-40.857-27.853-47.565-49.088c-17.075-54.144-55.91-84.928-118.732-94.119
		c-52.263-7.642-101.338,9.28-128.064,44.173c-10.56,13.798-34.713,19.341-58.61,13.504c-18.919-4.608-38.605-7.053-58.522-7.219
		c-0.717,0-1.408-0.013-2.125-0.013c-88.371,0-161.344,47.258-173.926,112.922c-4.377,22.835-1.689,45.645,8.013,67.802
		c11.469,26.253,1.05,54.554-27.917,75.699C20.467,502.195,0,538.1,0,576.166c0,50.509,73.229,86.465,134.656,107.726
		c37.849,13.081,62.732,38.336,68.262,69.056l0.32,1.779C215.001,815.181,278.618,857.6,355.993,857.6
		c2.599,0,5.21-0.051,7.847-0.153c58.727-2.15,114.982-26.995,150.528-66.457c10.944-12.147,28.582-18.919,44.006-16.666
		c26.727,3.814,53.965,1.779,81.024-6.157c62.669-18.342,110.464-68.467,118.963-124.735c4.353-28.826-1.113-57.063-15.808-81.651
		C736.013,550.822,736.486,537.511,743.795,527.04z M733.043,639.604c-7.027,46.617-47.552,88.396-100.838,103.987
		c-23.488,6.886-47.143,8.717-70.17,5.389h-0.013c-23.782-3.418-49.972,6.361-66.662,24.883
		c-30.989,34.406-80.499,56.103-132.455,58.01c-67.801,2.649-124.787-32-134.745-83.251c-7.245-40.308-38.272-72.729-85.12-88.935
		C69.504,634.253,25.6,603.021,25.6,576.166c0-29.67,16.729-58.239,47.104-80.409c38.758-28.313,52.646-69.171,36.262-106.637
		c-7.59-17.318-9.715-35.046-6.31-52.71c10.252-53.606,72.652-92.147,148.736-92.147c0.653,0,1.292,0.013,1.933,0.013
		c17.946,0.166,35.674,2.355,52.685,6.502c33.997,8.294,68.173-0.871,85.005-22.797c21.068-27.52,60.877-40.679,104.038-34.419
		c52.864,7.731,84.007,32.039,98.01,76.493c8.96,28.403,32.243,52.71,62.246,65.062c52.902,21.76,87.092,67.329,87.092,116.071
		c0,21.67-6.771,42.842-19.598,61.223c-13.146,18.867-14.003,42.815-2.227,62.515C732.186,594.33,736.499,616.704,733.043,639.604z"
		/>
	<path fill="#2B2B2B" d="M480,345.6c-95.283,0-172.8,77.503-172.8,172.8c0,95.296,77.517,172.8,172.8,172.8
		s172.8-77.517,172.8-172.8S575.283,345.6,480,345.6z M480,665.6c-81.165,0-147.2-66.035-147.2-147.199
		c0-81.165,66.035-147.2,147.2-147.2s147.2,66.035,147.2,147.2C627.2,599.564,561.165,665.6,480,665.6z"/>
	<path fill="#2B2B2B" d="M480,396.8c-12.186,0-24.23,1.805-35.764,5.351c-6.758,2.086-10.547,9.254-8.473,16
		c1.702,5.504,6.758,9.037,12.236,9.037c1.241,0,2.509-0.18,3.764-0.563c9.101-2.804,18.598-4.224,28.236-4.224
		c7.078,0,12.8-5.722,12.8-12.801C492.8,402.521,487.078,396.8,480,396.8z"/>
	<path fill="#2B2B2B" d="M401.651,425.408C374.157,448.589,358.4,482.471,358.4,518.4c0,7.078,5.722,12.8,12.8,12.8
		s12.8-5.722,12.8-12.8c0-28.365,12.454-55.117,34.15-73.408c5.401-4.557,6.093-12.634,1.536-18.035
		C415.13,421.542,407.065,420.852,401.651,425.408z"/>
	<path fill="#2B2B2B" d="M212.365,289.19c-2.88-6.451-10.419-9.344-16.896-6.502c-26.995,12.019-48.999,30.822-65.37,55.911
		c-3.878,5.926-2.202,13.85,3.712,17.715c2.15,1.408,4.583,2.086,6.976,2.086c4.173,0,8.269-2.035,10.727-5.798
		c13.632-20.89,31.923-36.531,54.349-46.515C212.326,303.207,215.219,295.629,212.365,289.19z"/>
	<path fill="#2B2B2B" d="M251.533,294.336c16.5-1.574,28.019-0.089,28.301-0.064c0.602,0.089,1.19,0.128,1.779,0.128
		c6.272,0,11.763-4.608,12.659-11.008c0.986-7.001-3.891-13.479-10.893-14.464c-0.589-0.077-14.477-1.971-34.33-0.063
		c-7.04,0.678-12.186,6.938-11.495,13.978C238.233,289.869,244.416,295.001,251.533,294.336z"/>
	<path fill="#2B2B2B" d="M331.213,767.015l-1.907,0.218c-29.824,3.264-57.024-17.075-62.093-46.4
		c-1.203-6.976-7.833-11.584-14.784-10.432c-6.976,1.203-11.635,7.82-10.432,14.783c6.835,39.604,41.459,67.994,81.076,67.994
		c3.046,0,6.131-0.167,9.241-0.512l2.087-0.243c7.014-0.871,11.993-7.271,11.11-14.285
		C344.627,771.123,338.304,766.131,331.213,767.015z"/>
	<path fill="#2B2B2B" d="M249.357,702.105c6.029-3.687,7.923-11.559,4.224-17.6c-12.557-20.531-28.621-30.503-29.313-30.912
		c-6.003-3.737-13.9-1.792-17.587,4.236c-3.699,6.029-1.805,13.901,4.237,17.588c0.115,0.076,11.597,7.372,20.838,22.464
		c2.419,3.942,6.618,6.118,10.931,6.118C244.966,704,247.271,703.386,249.357,702.105z"/>
</g>
</svg>
