<?xml version="1.0" encoding="utf-8"?>
<!-- Generator: Adobe Illustrator 16.0.0, SVG Export Plug-In . SVG Version: 6.00 Build 0)  -->
<!DOCTYPE svg PUBLIC "-//W3C//DTD SVG 1.1//EN" "http://www.w3.org/Graphics/SVG/1.1/DTD/svg11.dtd">
<svg version="1.1" id="Layer_1" xmlns="http://www.w3.org/2000/svg" xmlns:xlink="http://www.w3.org/1999/xlink" x="0px" y="0px"
	 width="768px" height="1024px" viewBox="0 0 768 1024" enable-background="new 0 0 768 1024" xml:space="preserve">
<g>
	<g>
		<g>
			<path fill="#363636" d="M655.53,240.472C583.001,167.943,486.57,128,384,128s-199.001,39.943-271.53,112.472
				C39.943,312.999,0,409.43,0,512s39.943,199.001,112.47,271.528C184.999,856.058,281.43,896,384,896
				s199.001-39.942,271.53-112.472C728.057,711.001,768,614.57,768,512S728.057,312.999,655.53,240.472z M384,870.229
				C186.473,870.229,25.772,709.529,25.772,512c0-197.529,160.701-358.228,358.228-358.228S742.229,314.471,742.229,512
				C742.229,709.529,581.527,870.229,384,870.229z"/>
			<path fill="#363636" d="M315.275,552.376c52.579,0,95.355-42.776,95.355-95.355c0-52.58-42.776-95.356-95.355-95.356
				c-52.58,0-95.356,42.776-95.356,95.356C219.919,509.6,262.695,552.376,315.275,552.376z M315.275,387.436
				c38.369,0,69.584,31.215,69.584,69.584s-31.215,69.584-69.584,69.584s-69.584-31.215-69.584-69.584
				S276.906,387.436,315.275,387.436z"/>
			<path fill="#363636" d="M653.076,609.532l-10.537-27.452c0.251-0.729,0.438-1.492,0.557-2.285
				c2.699-18.088,3.079-36.723,1.129-55.389c-8.348-79.901-46.556-111.853-96.637-144.981c2.261-1.859,4.455-3.838,6.566-5.95
				c23.787-23.787,31.697-57.833,19.686-84.722c-1.293-2.898-3.611-5.216-6.51-6.51c-26.889-12.008-60.937-4.1-84.724,19.688
				c-6.788,6.788-12.277,14.413-16.386,22.468c-6.551-4.902-12.904-9.815-19.155-14.856c-54.411-43.881-144.498-47.412-214.203-8.4
				c-72.744,40.71-107.482,118.167-95.31,212.509c6.246,48.406,31.282,95.802,71.256,135.776c-4.295,1.062-9.032,2.521-14.383,4.575
				c-3.19,1.225-5.764,3.666-7.154,6.788c-1.39,3.122-1.483,6.67-0.258,9.858l39.405,102.658c1.225,3.19,3.667,5.764,6.79,7.154
				c1.665,0.742,3.452,1.113,5.24,1.113c1.563,0,3.131-0.285,4.619-0.855c14.544-5.584,22.351-5.591,31.392-5.602
				c10.13-0.011,21.61-0.022,40.599-7.311c18.992-7.292,27.535-14.965,35.07-21.736c3.859-3.465,7.423-6.659,12.499-9.807
				c23.053,5.756,45.876,8.687,68.009,8.687c2.943,0,5.878-0.05,8.797-0.154c117.887-4.159,167.049-68.437,186.158-107.77
				c4.751-3.682,10.532-7.187,20.073-10.848C652.309,623.63,655.628,616.177,653.076,609.532z M500.834,320.151
				c14.569-14.571,34.916-20.779,51.214-16.114c4.666,16.3-1.547,36.644-16.114,51.213c-10.168,10.17-23.146,16.25-35.604,17.42
				l14.27-14.266c5.032-5.032,5.034-13.19,0.002-18.223c-5.032-5.032-13.192-5.034-18.225-0.001l-12.58,12.577
				C485.594,341.241,491.48,329.506,500.834,320.151z M163.115,510.351c-14.726-114.128,45.264-165.974,82.336-186.72
				c59.916-33.534,139.637-30.966,185.44,5.97c8.771,7.076,17.716,13.91,27.138,20.784c-1.199,9.022-0.731,18.053,1.516,26.617
				l-15.931,15.927c-5.032,5.033-5.034,13.19-0.001,18.222c2.517,2.518,5.813,3.774,9.112,3.774c3.297,0,6.595-1.257,9.111-3.772
				l15.2-15.197c6.149,1.836,12.56,2.752,19.061,2.752c8.823,0,17.8-1.66,26.472-4.857c50.459,32.748,84.569,56.908,94.565,122.047
				l-3.462-9.021c-2.55-6.644-10.007-9.961-16.647-7.411c-17.485,6.712-26.117,13.743-33.261,20.098l-42.388-30.166
				c-0.002-0.002-0.002-0.002-0.002-0.002c-0.002-0.002-0.004-0.002-0.005-0.004l-44.79-31.876
				c-2.785-1.982-6.236-2.778-9.612-2.208c-3.37,0.567-6.377,2.45-8.359,5.235c-11.805,16.589-14.687,27.714-17.228,37.527
				c-2.27,8.764-4.229,16.332-13.277,29.045c-9.048,12.711-15.556,17.044-23.094,22.059c-8.439,5.618-18.006,11.985-29.811,28.574
				c-4.342,6.1-7.722,11.786-10.392,17.485c-9.137,0.133-19.906,1.016-36.229,7.281c-18.994,7.29-27.537,14.965-35.074,21.734
				c-6.726,6.044-12.535,11.263-27.084,16.847c-9.888,3.795-16.661,5.012-22.825,5.406
				C197.982,607.552,169.434,559.32,163.115,510.351z M541.412,535.286c-1.994,0.922-4.173,1.849-6.614,2.784
				c-11.417,4.384-18.688,5.335-25.657,5.548c0.753-2.521,1.387-4.924,1.979-7.211c1.532-5.919,2.935-11.3,6.462-18.079
				L541.412,535.286z M496.444,503.28c-6.173,10.888-8.329,19.164-10.272,26.664c-1.368,5.279-2.612,10.001-5.256,15.624
				c-5.258,1.076-11.215,2.769-18.191,5.445c-18.999,7.291-27.544,14.968-35.083,21.737c-6.729,6.046-12.542,11.266-27.096,16.854
				c-0.993,0.381-1.948,0.731-2.882,1.062c8.294-11.164,14.501-15.304,21.623-20.044c8.439-5.616,18.004-11.983,29.811-28.57
				c11.808-16.587,14.687-27.712,17.229-37.525c1.534-5.923,2.926-11.299,6.458-18.083L496.444,503.28z M226.39,701.303
				l-10.409-27.108c7.429-1.72,12.97-1.726,19.071-1.732c10.13-0.01,21.61-0.022,40.601-7.313
				c18.992-7.29,27.534-14.965,35.072-21.733c6.729-6.043,12.537-11.263,27.086-16.847c14.537-5.58,22.343-5.589,31.38-5.598
				c10.129-0.01,21.605-0.021,40.591-7.307c18.999-7.292,27.543-14.969,35.082-21.738c6.73-6.046,12.542-11.266,27.097-16.853
				c14.568-5.591,22.386-5.604,31.438-5.617c10.137-0.016,21.629-0.032,40.637-7.329s27.561-14.974,35.103-21.745
				c4.552-4.087,8.684-7.795,15.379-11.495l10.407,27.108c-11.161,5.659-17.533,11.361-23.3,16.538
				c-6.736,6.05-12.554,11.272-27.12,16.862c-14.566,5.589-22.386,5.603-31.438,5.616c-10.139,0.016-21.629,0.032-40.637,7.329
				c-18.999,7.292-27.543,14.967-35.083,21.738c-6.729,6.044-12.542,11.264-27.096,16.852c-14.537,5.58-22.343,5.589-31.38,5.598
				c-10.129,0.01-21.605,0.021-40.591,7.307c-18.992,7.292-27.533,14.965-35.07,21.734c-6.727,6.044-12.537,11.264-27.084,16.848
				c-14.542,5.582-22.351,5.591-31.392,5.6C246.995,698.026,238.455,698.047,226.39,701.303z M441.916,718.879
				c2.301-0.735,4.711-1.575,7.27-2.557c18.999-7.292,27.543-14.968,35.082-21.737c6.73-6.046,12.543-11.266,27.097-16.854
				c14.568-5.593,22.386-5.603,31.44-5.616c7.815-0.011,16.452-0.038,28.702-3.387C540.512,698.927,496.116,716.331,441.916,718.879
				z M601.325,623.865c-6.737,6.048-12.555,11.271-27.121,16.861c-14.567,5.593-22.385,5.603-31.439,5.617
				c-10.137,0.015-21.628,0.032-40.637,7.327c-18.999,7.292-27.544,14.969-35.083,21.738c-6.729,6.046-12.542,11.266-27.096,16.853
				c-14.537,5.58-22.343,5.588-31.38,5.596c-10.129,0.011-21.607,0.021-40.593,7.31c-18.99,7.29-27.533,14.965-35.07,21.733
				c-6.727,6.045-12.535,11.265-27.083,16.849c-14.542,5.582-22.349,5.591-31.39,5.599c-7.742,0.009-16.276,0.018-28.347,3.277
				l-10.401-27.097c7.425-1.719,12.972-1.73,19.071-1.737c10.13-0.01,21.611-0.022,40.599-7.311
				c18.994-7.29,27.537-14.965,35.074-21.734c6.729-6.044,12.537-11.264,27.083-16.848c14.537-5.58,22.343-5.588,31.38-5.596
				c10.128-0.011,21.606-0.021,40.591-7.31c18.999-7.291,27.543-14.966,35.082-21.737c6.729-6.044,12.542-11.264,27.097-16.852
				c14.567-5.592,22.385-5.604,31.439-5.618c10.137-0.016,21.628-0.032,40.636-7.327c19.007-7.297,27.559-14.974,35.103-21.745
				c4.55-4.086,8.69-7.793,15.381-11.492l10.401,27.097C613.45,612.979,607.093,618.685,601.325,623.865z"/>
			<path fill="#363636" d="M315.275,442.416c8.053,0,14.604,6.552,14.604,14.604c0,7.118,5.77,12.886,12.886,12.886
				c7.117,0,12.887-5.768,12.887-12.886c0-22.264-18.112-40.376-40.376-40.376c-7.116,0-12.886,5.768-12.886,12.886
				S308.159,442.416,315.275,442.416z"/>
		</g>
	</g>
</g>
</svg>
